<?xml version="1.0" encoding="utf-8"?>
<!-- Generator: Adobe Illustrator 19.0.0, SVG Export Plug-In . SVG Version: 6.00 Build 0)  -->
<svg version="1.1" id="Calque_1" xmlns="http://www.w3.org/2000/svg" xmlns:xlink="http://www.w3.org/1999/xlink" x="0px" y="0px"
	 viewBox="0 0 37 37" style="enable-background:new 0 0 37 37;" xml:space="preserve">
<style type="text/css">
	.st0{fill:#813F90;}
	.st1{fill-rule:evenodd;clip-rule:evenodd;fill:#FFFFFF;}
</style>
<circle id="XMLID_32_" class="st0" cx="18.5" cy="18.5" r="18.5"/>
<g id="XMLID_18_">
	<g id="XMLID_19_">
		<path id="XMLID_20_" class="st1" d="M29.6,26.8l-5.1-5.1c0,0-0.1,0-0.1-0.1c1-1.5,1.6-3.3,1.6-5.3c0-5.3-4.3-9.6-9.6-9.6
			s-9.6,4.3-9.6,9.6c0,5.3,4.3,9.6,9.6,9.6c1.9,0,3.8-0.6,5.3-1.6c0,0,0,0.1,0.1,0.1l5.1,5.1c0.8,0.8,2,0.8,2.8,0
			C30.4,28.8,30.4,27.6,29.6,26.8L29.6,26.8z M16.4,22.7c-3.5,0-6.3-2.8-6.3-6.3c0-3.5,2.8-6.3,6.3-6.3s6.3,2.8,6.3,6.3
			C22.7,19.9,19.9,22.7,16.4,22.7L16.4,22.7z M16.4,22.7"/>
	</g>
</g>
</svg>
